<svg width="9" height="14" viewBox="0 0 9 14" fill="none" xmlns="http://www.w3.org/2000/svg">
<path d="M1.23535 13.789C1.13018 13.7896 1.02593 13.7714 0.928578 13.7355C0.831221 13.6995 0.742671 13.6466 0.668005 13.5797C0.593109 13.5125 0.533663 13.4327 0.493095 13.3447C0.452527 13.2567 0.431641 13.1623 0.431641 13.067C0.431641 12.9717 0.452527 12.8773 0.493095 12.7893C0.533663 12.7013 0.593109 12.6215 0.668005 12.5543L6.50124 7.29053L0.668005 2.02674C0.517537 1.89077 0.433005 1.70636 0.433005 1.51407C0.433005 1.41886 0.453757 1.32459 0.494079 1.23662C0.5344 1.14866 0.593501 1.06874 0.668005 1.00141C0.74251 0.93409 0.830959 0.880686 0.928304 0.844251C1.02565 0.807816 1.12998 0.789062 1.23535 0.789062C1.44814 0.789062 1.65222 0.865448 1.80269 1.00141L8.19528 6.77787C8.27017 6.845 8.32962 6.92486 8.37019 7.01285C8.41075 7.10084 8.43164 7.19521 8.43164 7.29053C8.43164 7.38585 8.41075 7.48023 8.37019 7.56822C8.32962 7.65621 8.27017 7.73607 8.19528 7.80319L1.80269 13.5797C1.72802 13.6466 1.63947 13.6995 1.54212 13.7355C1.44476 13.7714 1.34051 13.7896 1.23535 13.789Z" fill="#272C2F"/>
</svg>
